# xmcd
#
# Track frame offsets: 
#        150
#        14904
#        36500
#        51273
#        67579
#        85081
#        107333
#        120485
#        140757
#        157286
#        190536
#        198775
#        214351
#
# Disc length: 3099 seconds
#
# Revision: 1
# Processed by: cddbd v1.5.2PL0 Copyright (c) Steve Scherf et al.
# Submitted via: ExactAudioCopy v0.99pb4
#
DISCID=b70c190d
DTITLE=Einar Örn - Ghostigital
DYEAR=2003
DGENRE=
TTITLE0=Suicide
TTITLE1=Strangely Shaped (featuring Sensational)
TTITLE2=Mess Up
TTITLE3=Calm Water No. 35
TTITLE4=Bank
TTITLE5=Cough of Love (featuring Sensational)
TTITLE6=Thirsty Fly
TTITLE7=Drunken Piano
TTITLE8=JeJeJe
TTITLE9=Boink (featuring Sensational)
TTITLE10=Dirty Fly
TTITLE11=Monday
TTITLE12=Losing It
EXTD=
EXTT0=
EXTT1=
EXTT2=
EXTT3=
EXTT4=
EXTT5=
EXTT6=
EXTT7=
EXTT8=
EXTT9=
EXTT10=
EXTT11=
EXTT12=
PLAYORDER=
